<svg xmlns="http://www.w3.org/2000/svg" xmlns:xlink="http://www.w3.org/1999/xlink" width="920" height="477.62"><rect width="920" height="477.62" rx="0" ry="0" class="a"/><svg height="477.62" viewBox="0 0 92 47.762" width="920" xmlns="http://www.w3.org/2000/svg" xmlns:xlink="http://www.w3.org/1999/xlink"><style>@keyframes i{0%{transform:translateX(0)}4.3%{transform:translateX(-92px)}4.7%{transform:translateX(-184px)}5%{transform:translateX(-276px)}5.3%{transform:translateX(-368px)}5.7%{transform:translateX(-460px)}6.1%{transform:translateX(-552px)}6.6%{transform:translateX(-644px)}7.1%{transform:translateX(-736px)}7.4%{transform:translateX(-828px)}7.8%{transform:translateX(-920px)}8%{transform:translateX(-1012px)}8.4%{transform:translateX(-1104px)}8.8%{transform:translateX(-1196px)}9.1%{transform:translateX(-1288px)}9.4%{transform:translateX(-1380px)}9.8%{transform:translateX(-1472px)}10.3%{transform:translateX(-1564px)}10.6%{transform:translateX(-1656px)}11%{transform:translateX(-1748px)}11.5%{transform:translateX(-1840px)}11.8%{transform:translateX(-1932px)}12.2%{transform:translateX(-2024px)}12.7%{transform:translateX(-2116px)}13.1%{transform:translateX(-2208px)}13.4%{transform:translateX(-2300px)}13.9%{transform:translateX(-2392px)}14.3%{transform:translateX(-2484px)}14.6%{transform:translateX(-2576px)}14.9%{transform:translateX(-2668px)}15.3%{transform:translateX(-2760px)}15.8%{transform:translateX(-2852px)}16.3%{transform:translateX(-2944px)}16.7%{transform:translateX(-3036px)}17.1%{transform:translateX(-3128px)}17.6%{transform:translateX(-3220px)}18%{transform:translateX(-3312px)}18.4%{transform:translateX(-3404px)}18.9%{transform:translateX(-3496px)}19.3%{transform:translateX(-3588px)}19.8%{transform:translateX(-3680px)}20.2%{transform:translateX(-3772px)}20.7%{transform:translateX(-3864px)}21%{transform:translateX(-3956px)}21.3%{transform:translateX(-4048px)}21.7%{transform:translateX(-4140px)}22%{transform:translateX(-4232px)}22.3%{transform:translateX(-4324px)}22.6%{transform:translateX(-4416px)}23%{transform:translateX(-4508px)}23.4%{transform:translateX(-4600px)}23.8%{transform:translateX(-4692px)}24.1%{transform:translateX(-4784px)}24.5%{transform:translateX(-4876px)}24.8%{transform:translateX(-4968px)}25.3%{transform:translateX(-5060px)}25.8%{transform:translateX(-5152px)}26.2%{transform:translateX(-5244px)}26.5%{transform:translateX(-5336px)}27%{transform:translateX(-5428px)}27.3%{transform:translateX(-5520px)}27.7%{transform:translateX(-5612px)}28.2%{transform:translateX(-5704px)}28.6%{transform:translateX(-5796px)}29%{transform:translateX(-5888px)}29.5%{transform:translateX(-5980px)}30%{transform:translateX(-6072px)}30.4%{transform:translateX(-6164px)}30.8%{transform:translateX(-6256px)}31.1%{transform:translateX(-6440px)}34.1%{transform:translateX(-6624px)}35.2%{transform:translateX(-6808px)}36.2%{transform:translateX(-6992px)}37.7%{transform:translateX(-7176px)}39.7%{transform:translateX(-7268px)}47.9%{transform:translateX(-7452px)}51.7%{transform:translateX(-7636px)}52.8%{transform:translateX(-7820px)}54.1%{transform:translateX(-8004px)}55.2%{transform:translateX(-8188px)}56.9%{transform:translateX(-8280px)}62.6%{transform:translateX(-8464px)}64%{transform:translateX(-8648px)}65.2%{transform:translateX(-8832px)}66.2%{transform:translateX(-9016px)}67.3%{transform:translateX(-9200px)}69%{transform:translateX(-9292px)}73.7%{transform:translateX(-9476px)}74.9%{transform:translateX(-9660px)}79.7%{transform:translateX(-9752px)}85.3%{transform:translateX(-9844px)}85.8%{transform:translateX(-9936px)}to{transform:translateX(-10028px)}}.a{fill:#282d35}.c{fill:#b9c0cb;white-space:pre}.d{fill:#d290e4}.d,.e,.f,.g{white-space:pre}.e{fill:#b9c0cb;font-weight:700}.f,.g{fill:#66c2cd}.g{fill:#a8cc8c}</style><g font-family="Monaco,Consolas,Menlo,'Bitstream Vera Sans Mono','Powerline Symbols',monospace" font-size="1.67"><defs><symbol id="1"><text y="1.67" class="c">$</text></symbol><symbol id="2"><text y="1.67" class="c">$</text><text x="2.004" y="1.67" class="c">fluid</text></symbol><symbol id="3"><text y="1.67" class="c">$</text><text x="2.004" y="1.67" class="c">fluid</text><text x="8.016" y="1.67" class="c">forge</text></symbol><symbol id="4"><text y="1.67" class="c">$</text><text x="2.004" y="1.67" class="c">fluid</text><text x="8.016" y="1.67" class="c">forge</text><text x="14.028" y="1.67" class="c">--blank</text></symbol><symbol id="5"><text y="1.67" class="c">$</text><text x="2.004" y="1.67" class="c">fluid</text><text x="8.016" y="1.67" class="c">forge</text><text x="14.028" y="1.67" class="c">--blank</text><text x="22.044" y="1.67" class="c">--domain</text></symbol><symbol id="6"><text y="1.67" class="c">$</text><text x="2.004" y="1.67" class="c">fluid</text><text x="8.016" y="1.67" class="c">forge</text><text x="14.028" y="1.67" class="c">--blank</text><text x="22.044" y="1.67" class="c">--domain</text><text x="31.062" y="1.67" class="c">finance</text></symbol><symbol id="7"><text y="1.67" class="c">$</text><text x="2.004" y="1.67" class="c">fluid</text><text x="8.016" y="1.67" class="c">forge</text><text x="14.028" y="1.67" class="c">--blank</text><text x="22.044" y="1.67" class="c">--domain</text><text x="31.062" y="1.67" class="c">finance</text><text x="39.078" y="1.67" class="c">--target-dir</text></symbol><symbol id="8"><text y="1.67" class="c">$</text><text x="2.004" y="1.67" class="c">fluid</text><text x="8.016" y="1.67" class="c">forge</text><text x="14.028" y="1.67" class="c">--blank</text><text x="22.044" y="1.67" class="c">--domain</text><text x="31.062" y="1.67" class="c">finance</text><text x="39.078" y="1.67" class="c">--target-dir</text><text x="52.104" y="1.67" class="c">my-finance-product</text></symbol><symbol id="9"><text x="2.004" y="1.67" class="d">✨</text><text x="4.008" y="1.67" class="e">fluid</text><text x="10.02" y="1.67" class="e">forge</text><text x="16.032" y="1.67" class="c">—</text><text x="18.036" y="1.67" class="c">AI-powered</text><text x="29.058" y="1.67" class="c">data</text><text x="34.068" y="1.67" class="c">product</text><text x="42.084" y="1.67" class="c">creation</text></symbol><symbol id="10"><text x="2.004" y="1.67" class="c">─────────────────────────────────────────────────</text></symbol><symbol id="11"><text x="2.004" y="1.67" class="c">Domain:</text><text x="10.02" y="1.67" class="f">finance</text><text x="18.036" y="1.67" class="c">(regulated</text><text x="29.058" y="1.67" class="c">analytics,</text><text x="40.08" y="1.67" class="c">fraud,</text><text x="47.094" y="1.67" class="c">compliance)</text></symbol><symbol id="12"><text x="2.004" y="1.67" class="c">Mode:</text><text x="10.02" y="1.67" class="f">--blank</text><text x="18.036" y="1.67" class="c">(no</text><text x="22.044" y="1.67" class="c">LLM,</text><text x="27.054" y="1.67" class="c">structured</text><text x="38.076" y="1.67" class="c">stub</text><text x="43.086" y="1.67" class="c">only)</text></symbol><symbol id="13"><text x="2.004" y="1.67" class="d">🎯</text><text x="5.01" y="1.67" class="c">Generating</text><text x="16.032" y="1.67" class="c">finance-domain</text><text x="31.062" y="1.67" class="c">skeleton...</text></symbol><symbol id="14"><text x="2.004" y="1.67" class="g">✓</text><text x="4.008" y="1.67" class="c">Created</text><text x="12.024" y="1.67" class="f">my-finance-product/contract.fluid.yaml</text><text x="51.102" y="1.67" class="c">with</text><text x="56.112" y="1.67" class="c">finance</text><text x="64.128" y="1.67" class="c">defaults</text></symbol><symbol id="15"><text x="2.004" y="1.67" class="g">✓</text><text x="4.008" y="1.67" class="c">Pre-seeded</text><text x="15.03" y="1.67" class="f">sovereignty.regulatoryFramework</text><text x="47.094" y="1.67" class="c">=</text><text x="49.098" y="1.67" class="c">[&apos;SOX&apos;,</text><text x="57.114" y="1.67" class="c">&apos;GDPR&apos;]</text></symbol><symbol id="16"><text x="2.004" y="1.67" class="g">✓</text><text x="4.008" y="1.67" class="c">Pre-seeded</text><text x="15.03" y="1.67" class="f">agentPolicy.deniedUseCases</text><text x="42.084" y="1.67" class="c">=</text><text x="44.088" y="1.67" class="c">[&apos;training&apos;,</text><text x="57.114" y="1.67" class="c">&apos;fine-tuning&apos;]</text></symbol><symbol id="17"><text x="2.004" y="1.67" class="g">✓</text><text x="4.008" y="1.67" class="c">Pre-seeded</text><text x="15.03" y="1.67" class="f">metadata.layer</text><text x="30.06" y="1.67" class="c">=</text><text x="32.064" y="1.67" class="c">&apos;Gold&apos;</text><text x="39.078" y="1.67" class="c">(finance</text><text x="48.096" y="1.67" class="c">defaults</text><text x="57.114" y="1.67" class="c">to</text><text x="60.12" y="1.67" class="c">Gold)</text></symbol><symbol id="18"><text x="2.004" y="1.67" class="e">📋</text><text x="5.01" y="1.67" class="e">Next</text><text x="10.02" y="1.67" class="e">steps</text><text x="16.032" y="1.67" class="c">—</text><text x="18.036" y="1.67" class="c">fill</text><text x="23.046" y="1.67" class="c">in</text><text x="26.052" y="1.67" class="c">the</text><text x="30.06" y="1.67" class="c">blanks:</text></symbol><symbol id="19"><text x="4.008" y="1.67" class="c">1.</text><text x="7.014" y="1.67" class="c">Add</text><text x="11.022" y="1.67" class="c">at</text><text x="14.028" y="1.67" class="c">least</text><text x="20.04" y="1.67" class="c">one</text><text x="24.048" y="1.67" class="f">expose</text><text x="31.062" y="1.67" class="c">block</text><text x="37.074" y="1.67" class="c">describing</text><text x="48.096" y="1.67" class="c">your</text><text x="53.106" y="1.67" class="c">output</text></symbol><symbol id="20"><text x="4.008" y="1.67" class="c">2.</text><text x="7.014" y="1.67" class="c">Define</text><text x="14.028" y="1.67" class="c">the</text><text x="18.036" y="1.67" class="c">schema</text><text x="25.05" y="1.67" class="c">fields</text><text x="32.064" y="1.67" class="c">(transactions,</text><text x="47.094" y="1.67" class="c">balance,</text><text x="56.112" y="1.67" class="c">etc.)</text></symbol><symbol id="21"><text x="4.008" y="1.67" class="c">3.</text><text x="7.014" y="1.67" class="c">Set</text><text x="11.022" y="1.67" class="f">binding.platform</text><text x="28.056" y="1.67" class="c">to</text><text x="31.062" y="1.67" class="c">your</text><text x="36.072" y="1.67" class="c">target</text><text x="43.086" y="1.67" class="c">cloud</text></symbol><symbol id="22"><text x="4.008" y="1.67" class="c">4.</text><text x="7.014" y="1.67" class="c">Run</text><text x="11.022" y="1.67" class="g">fluid</text><text x="17.034" y="1.67" class="g">validate</text><text x="26.052" y="1.67" class="g">contract.fluid.yaml</text></symbol><symbol id="23"><text x="2.004" y="1.67" class="c">💡</text><text x="5.01" y="1.67" class="c">Want</text><text x="10.02" y="1.67" class="c">the</text><text x="14.028" y="1.67" class="c">AI</text><text x="17.034" y="1.67" class="c">to</text><text x="20.04" y="1.67" class="c">fill</text><text x="25.05" y="1.67" class="c">these</text><text x="31.062" y="1.67" class="c">in</text><text x="34.068" y="1.67" class="c">automatically?</text></symbol><symbol id="24"><text x="5.01" y="1.67" class="c">Re-run</text><text x="12.024" y="1.67" class="c">without</text><text x="20.04" y="1.67" class="c">--blank:</text><text x="29.058" y="1.67" class="c">fluid</text><text x="35.07" y="1.67" class="c">forge</text><text x="41.082" y="1.67" class="c">--domain</text><text x="50.1" y="1.67" class="c">finance</text></symbol><symbol id="a"><path fill="transparent" d="M0 0h92v23H0z"/></symbol></defs><path class="a" d="M0 0h92v47.762H0z"/><g style="animation-duration:10.5707s;animation-iteration-count:infinite;animation-name:i;animation-timing-function:steps(1,end)"><svg width="10120"><svg><use xlink:href="#a"/></svg><svg x="92"><use xlink:href="#a"/><use xlink:href="#1"/></svg><svg x="184"><use xlink:href="#a"/><text y="1.67" class="c">$</text><text x="2.004" y="1.67" class="c">f</text></svg><svg x="276"><use xlink:href="#a"/><text y="1.67" class="c">$</text><text x="2.004" y="1.67" class="c">fl</text></svg><svg x="368"><use xlink:href="#a"/><text y="1.67" class="c">$</text><text x="2.004" y="1.67" class="c">flu</text></svg><svg x="460"><use xlink:href="#a"/><text y="1.67" class="c">$</text><text x="2.004" y="1.67" class="c">flui</text></svg><svg x="552"><use xlink:href="#a"/><use xlink:href="#2"/></svg><svg x="644"><use xlink:href="#a"/><use xlink:href="#2"/></svg><svg x="736"><use xlink:href="#a"/><text y="1.67" class="c">$</text><text x="2.004" y="1.67" class="c">fluid</text><text x="8.016" y="1.67" class="c">f</text></svg><svg x="828"><use xlink:href="#a"/><text y="1.67" class="c">$</text><text x="2.004" y="1.67" class="c">fluid</text><text x="8.016" y="1.67" class="c">fo</text></svg><svg x="920"><use xlink:href="#a"/><text y="1.67" class="c">$</text><text x="2.004" y="1.67" class="c">fluid</text><text x="8.016" y="1.67" class="c">for</text></svg><svg x="1012"><use xlink:href="#a"/><text y="1.67" class="c">$</text><text x="2.004" y="1.67" class="c">fluid</text><text x="8.016" y="1.67" class="c">forg</text></svg><svg x="1104"><use xlink:href="#a"/><use xlink:href="#3"/></svg><svg x="1196"><use xlink:href="#a"/><use xlink:href="#3"/></svg><svg x="1288"><use xlink:href="#a"/><text y="1.67" class="c">$</text><text x="2.004" y="1.67" class="c">fluid</text><text x="8.016" y="1.67" class="c">forge</text><text x="14.028" y="1.67" class="c">-</text></svg><svg x="1380"><use xlink:href="#a"/><text y="1.67" class="c">$</text><text x="2.004" y="1.67" class="c">fluid</text><text x="8.016" y="1.67" class="c">forge</text><text x="14.028" y="1.67" class="c">--</text></svg><svg x="1472"><use xlink:href="#a"/><text y="1.67" class="c">$</text><text x="2.004" y="1.67" class="c">fluid</text><text x="8.016" y="1.67" class="c">forge</text><text x="14.028" y="1.67" class="c">--b</text></svg><svg x="1564"><use xlink:href="#a"/><text y="1.67" class="c">$</text><text x="2.004" y="1.67" class="c">fluid</text><text x="8.016" y="1.67" class="c">forge</text><text x="14.028" y="1.67" class="c">--bl</text></svg><svg x="1656"><use xlink:href="#a"/><text y="1.67" class="c">$</text><text x="2.004" y="1.67" class="c">fluid</text><text x="8.016" y="1.67" class="c">forge</text><text x="14.028" y="1.67" class="c">--bla</text></svg><svg x="1748"><use xlink:href="#a"/><text y="1.67" class="c">$</text><text x="2.004" y="1.67" class="c">fluid</text><text x="8.016" y="1.67" class="c">forge</text><text x="14.028" y="1.67" class="c">--blan</text></svg><svg x="1840"><use xlink:href="#a"/><use xlink:href="#4"/></svg><svg x="1932"><use xlink:href="#a"/><use xlink:href="#4"/></svg><svg x="2024"><use xlink:href="#a"/><text y="1.67" class="c">$</text><text x="2.004" y="1.67" class="c">fluid</text><text x="8.016" y="1.67" class="c">forge</text><text x="14.028" y="1.67" class="c">--blank</text><text x="22.044" y="1.67" class="c">-</text></svg><svg x="2116"><use xlink:href="#a"/><text y="1.67" class="c">$</text><text x="2.004" y="1.67" class="c">fluid</text><text x="8.016" y="1.67" class="c">forge</text><text x="14.028" y="1.67" class="c">--blank</text><text x="22.044" y="1.67" class="c">--</text></svg><svg x="2208"><use xlink:href="#a"/><text y="1.67" class="c">$</text><text x="2.004" y="1.67" class="c">fluid</text><text x="8.016" y="1.67" class="c">forge</text><text x="14.028" y="1.67" class="c">--blank</text><text x="22.044" y="1.67" class="c">--d</text></svg><svg x="2300"><use xlink:href="#a"/><text y="1.67" class="c">$</text><text x="2.004" y="1.67" class="c">fluid</text><text x="8.016" y="1.67" class="c">forge</text><text x="14.028" y="1.67" class="c">--blank</text><text x="22.044" y="1.67" class="c">--do</text></svg><svg x="2392"><use xlink:href="#a"/><text y="1.67" class="c">$</text><text x="2.004" y="1.67" class="c">fluid</text><text x="8.016" y="1.67" class="c">forge</text><text x="14.028" y="1.67" class="c">--blank</text><text x="22.044" y="1.67" class="c">--dom</text></svg><svg x="2484"><use xlink:href="#a"/><text y="1.67" class="c">$</text><text x="2.004" y="1.67" class="c">fluid</text><text x="8.016" y="1.67" class="c">forge</text><text x="14.028" y="1.67" class="c">--blank</text><text x="22.044" y="1.67" class="c">--doma</text></svg><svg x="2576"><use xlink:href="#a"/><text y="1.67" class="c">$</text><text x="2.004" y="1.67" class="c">fluid</text><text x="8.016" y="1.67" class="c">forge</text><text x="14.028" y="1.67" class="c">--blank</text><text x="22.044" y="1.67" class="c">--domai</text></svg><svg x="2668"><use xlink:href="#a"/><use xlink:href="#5"/></svg><svg x="2760"><use xlink:href="#a"/><use xlink:href="#5"/></svg><svg x="2852"><use xlink:href="#a"/><text y="1.67" class="c">$</text><text x="2.004" y="1.67" class="c">fluid</text><text x="8.016" y="1.67" class="c">forge</text><text x="14.028" y="1.67" class="c">--blank</text><text x="22.044" y="1.67" class="c">--domain</text><text x="31.062" y="1.67" class="c">f</text></svg><svg x="2944"><use xlink:href="#a"/><text y="1.67" class="c">$</text><text x="2.004" y="1.67" class="c">fluid</text><text x="8.016" y="1.67" class="c">forge</text><text x="14.028" y="1.67" class="c">--blank</text><text x="22.044" y="1.67" class="c">--domain</text><text x="31.062" y="1.67" class="c">fi</text></svg><svg x="3036"><use xlink:href="#a"/><text y="1.67" class="c">$</text><text x="2.004" y="1.67" class="c">fluid</text><text x="8.016" y="1.67" class="c">forge</text><text x="14.028" y="1.67" class="c">--blank</text><text x="22.044" y="1.67" class="c">--domain</text><text x="31.062" y="1.67" class="c">fin</text></svg><svg x="3128"><use xlink:href="#a"/><text y="1.67" class="c">$</text><text x="2.004" y="1.67" class="c">fluid</text><text x="8.016" y="1.67" class="c">forge</text><text x="14.028" y="1.67" class="c">--blank</text><text x="22.044" y="1.67" class="c">--domain</text><text x="31.062" y="1.67" class="c">fina</text></svg><svg x="3220"><use xlink:href="#a"/><text y="1.67" class="c">$</text><text x="2.004" y="1.67" class="c">fluid</text><text x="8.016" y="1.67" class="c">forge</text><text x="14.028" y="1.67" class="c">--blank</text><text x="22.044" y="1.67" class="c">--domain</text><text x="31.062" y="1.67" class="c">finan</text></svg><svg x="3312"><use xlink:href="#a"/><text y="1.67" class="c">$</text><text x="2.004" y="1.67" class="c">fluid</text><text x="8.016" y="1.67" class="c">forge</text><text x="14.028" y="1.67" class="c">--blank</text><text x="22.044" y="1.67" class="c">--domain</text><text x="31.062" y="1.67" class="c">financ</text></svg><svg x="3404"><use xlink:href="#a"/><use xlink:href="#6"/></svg><svg x="3496"><use xlink:href="#a"/><use xlink:href="#6"/></svg><svg x="3588"><use xlink:href="#a"/><text y="1.67" class="c">$</text><text x="2.004" y="1.67" class="c">fluid</text><text x="8.016" y="1.67" class="c">forge</text><text x="14.028" y="1.67" class="c">--blank</text><text x="22.044" y="1.67" class="c">--domain</text><text x="31.062" y="1.67" class="c">finance</text><text x="39.078" y="1.67" class="c">-</text></svg><svg x="3680"><use xlink:href="#a"/><text y="1.67" class="c">$</text><text x="2.004" y="1.67" class="c">fluid</text><text x="8.016" y="1.67" class="c">forge</text><text x="14.028" y="1.67" class="c">--blank</text><text x="22.044" y="1.67" class="c">--domain</text><text x="31.062" y="1.67" class="c">finance</text><text x="39.078" y="1.67" class="c">--</text></svg><svg x="3772"><use xlink:href="#a"/><text y="1.67" class="c">$</text><text x="2.004" y="1.67" class="c">fluid</text><text x="8.016" y="1.67" class="c">forge</text><text x="14.028" y="1.67" class="c">--blank</text><text x="22.044" y="1.67" class="c">--domain</text><text x="31.062" y="1.67" class="c">finance</text><text x="39.078" y="1.67" class="c">--t</text></svg><svg x="3864"><use xlink:href="#a"/><text y="1.67" class="c">$</text><text x="2.004" y="1.67" class="c">fluid</text><text x="8.016" y="1.67" class="c">forge</text><text x="14.028" y="1.67" class="c">--blank</text><text x="22.044" y="1.67" class="c">--domain</text><text x="31.062" y="1.67" class="c">finance</text><text x="39.078" y="1.67" class="c">--ta</text></svg><svg x="3956"><use xlink:href="#a"/><text y="1.67" class="c">$</text><text x="2.004" y="1.67" class="c">fluid</text><text x="8.016" y="1.67" class="c">forge</text><text x="14.028" y="1.67" class="c">--blank</text><text x="22.044" y="1.67" class="c">--domain</text><text x="31.062" y="1.67" class="c">finance</text><text x="39.078" y="1.67" class="c">--tar</text></svg><svg x="4048"><use xlink:href="#a"/><text y="1.67" class="c">$</text><text x="2.004" y="1.67" class="c">fluid</text><text x="8.016" y="1.67" class="c">forge</text><text x="14.028" y="1.67" class="c">--blank</text><text x="22.044" y="1.67" class="c">--domain</text><text x="31.062" y="1.67" class="c">finance</text><text x="39.078" y="1.67" class="c">--targ</text></svg><svg x="4140"><use xlink:href="#a"/><text y="1.67" class="c">$</text><text x="2.004" y="1.67" class="c">fluid</text><text x="8.016" y="1.67" class="c">forge</text><text x="14.028" y="1.67" class="c">--blank</text><text x="22.044" y="1.67" class="c">--domain</text><text x="31.062" y="1.67" class="c">finance</text><text x="39.078" y="1.67" class="c">--targe</text></svg><svg x="4232"><use xlink:href="#a"/><text y="1.67" class="c">$</text><text x="2.004" y="1.67" class="c">fluid</text><text x="8.016" y="1.67" class="c">forge</text><text x="14.028" y="1.67" class="c">--blank</text><text x="22.044" y="1.67" class="c">--domain</text><text x="31.062" y="1.67" class="c">finance</text><text x="39.078" y="1.67" class="c">--target</text></svg><svg x="4324"><use xlink:href="#a"/><text y="1.67" class="c">$</text><text x="2.004" y="1.67" class="c">fluid</text><text x="8.016" y="1.67" class="c">forge</text><text x="14.028" y="1.67" class="c">--blank</text><text x="22.044" y="1.67" class="c">--domain</text><text x="31.062" y="1.67" class="c">finance</text><text x="39.078" y="1.67" class="c">--target-</text></svg><svg x="4416"><use xlink:href="#a"/><text y="1.67" class="c">$</text><text x="2.004" y="1.67" class="c">fluid</text><text x="8.016" y="1.67" class="c">forge</text><text x="14.028" y="1.67" class="c">--blank</text><text x="22.044" y="1.67" class="c">--domain</text><text x="31.062" y="1.67" class="c">finance</text><text x="39.078" y="1.67" class="c">--target-d</text></svg><svg x="4508"><use xlink:href="#a"/><text y="1.67" class="c">$</text><text x="2.004" y="1.67" class="c">fluid</text><text x="8.016" y="1.67" class="c">forge</text><text x="14.028" y="1.67" class="c">--blank</text><text x="22.044" y="1.67" class="c">--domain</text><text x="31.062" y="1.67" class="c">finance</text><text x="39.078" y="1.67" class="c">--target-di</text></svg><svg x="4600"><use xlink:href="#a"/><use xlink:href="#7"/></svg><svg x="4692"><use xlink:href="#a"/><use xlink:href="#7"/></svg><svg x="4784"><use xlink:href="#a"/><text y="1.67" class="c">$</text><text x="2.004" y="1.67" class="c">fluid</text><text x="8.016" y="1.67" class="c">forge</text><text x="14.028" y="1.67" class="c">--blank</text><text x="22.044" y="1.67" class="c">--domain</text><text x="31.062" y="1.67" class="c">finance</text><text x="39.078" y="1.67" class="c">--target-dir</text><text x="52.104" y="1.67" class="c">m</text></svg><svg x="4876"><use xlink:href="#a"/><text y="1.67" class="c">$</text><text x="2.004" y="1.67" class="c">fluid</text><text x="8.016" y="1.67" class="c">forge</text><text x="14.028" y="1.67" class="c">--blank</text><text x="22.044" y="1.67" class="c">--domain</text><text x="31.062" y="1.67" class="c">finance</text><text x="39.078" y="1.67" class="c">--target-dir</text><text x="52.104" y="1.67" class="c">my</text></svg><svg x="4968"><use xlink:href="#a"/><text y="1.67" class="c">$</text><text x="2.004" y="1.67" class="c">fluid</text><text x="8.016" y="1.67" class="c">forge</text><text x="14.028" y="1.67" class="c">--blank</text><text x="22.044" y="1.67" class="c">--domain</text><text x="31.062" y="1.67" class="c">finance</text><text x="39.078" y="1.67" class="c">--target-dir</text><text x="52.104" y="1.67" class="c">my-</text></svg><svg x="5060"><use xlink:href="#a"/><text y="1.67" class="c">$</text><text x="2.004" y="1.67" class="c">fluid</text><text x="8.016" y="1.67" class="c">forge</text><text x="14.028" y="1.67" class="c">--blank</text><text x="22.044" y="1.67" class="c">--domain</text><text x="31.062" y="1.67" class="c">finance</text><text x="39.078" y="1.67" class="c">--target-dir</text><text x="52.104" y="1.67" class="c">my-f</text></svg><svg x="5152"><use xlink:href="#a"/><text y="1.67" class="c">$</text><text x="2.004" y="1.67" class="c">fluid</text><text x="8.016" y="1.67" class="c">forge</text><text x="14.028" y="1.67" class="c">--blank</text><text x="22.044" y="1.67" class="c">--domain</text><text x="31.062" y="1.67" class="c">finance</text><text x="39.078" y="1.67" class="c">--target-dir</text><text x="52.104" y="1.67" class="c">my-fi</text></svg><svg x="5244"><use xlink:href="#a"/><text y="1.67" class="c">$</text><text x="2.004" y="1.67" class="c">fluid</text><text x="8.016" y="1.67" class="c">forge</text><text x="14.028" y="1.67" class="c">--blank</text><text x="22.044" y="1.67" class="c">--domain</text><text x="31.062" y="1.67" class="c">finance</text><text x="39.078" y="1.67" class="c">--target-dir</text><text x="52.104" y="1.67" class="c">my-fin</text></svg><svg x="5336"><use xlink:href="#a"/><text y="1.67" class="c">$</text><text x="2.004" y="1.67" class="c">fluid</text><text x="8.016" y="1.67" class="c">forge</text><text x="14.028" y="1.67" class="c">--blank</text><text x="22.044" y="1.67" class="c">--domain</text><text x="31.062" y="1.67" class="c">finance</text><text x="39.078" y="1.67" class="c">--target-dir</text><text x="52.104" y="1.67" class="c">my-fina</text></svg><svg x="5428"><use xlink:href="#a"/><text y="1.67" class="c">$</text><text x="2.004" y="1.67" class="c">fluid</text><text x="8.016" y="1.67" class="c">forge</text><text x="14.028" y="1.67" class="c">--blank</text><text x="22.044" y="1.67" class="c">--domain</text><text x="31.062" y="1.67" class="c">finance</text><text x="39.078" y="1.67" class="c">--target-dir</text><text x="52.104" y="1.67" class="c">my-finan</text></svg><svg x="5520"><use xlink:href="#a"/><text y="1.67" class="c">$</text><text x="2.004" y="1.67" class="c">fluid</text><text x="8.016" y="1.67" class="c">forge</text><text x="14.028" y="1.67" class="c">--blank</text><text x="22.044" y="1.67" class="c">--domain</text><text x="31.062" y="1.67" class="c">finance</text><text x="39.078" y="1.67" class="c">--target-dir</text><text x="52.104" y="1.67" class="c">my-financ</text></svg><svg x="5612"><use xlink:href="#a"/><text y="1.67" class="c">$</text><text x="2.004" y="1.67" class="c">fluid</text><text x="8.016" y="1.67" class="c">forge</text><text x="14.028" y="1.67" class="c">--blank</text><text x="22.044" y="1.67" class="c">--domain</text><text x="31.062" y="1.67" class="c">finance</text><text x="39.078" y="1.67" class="c">--target-dir</text><text x="52.104" y="1.67" class="c">my-finance</text></svg><svg x="5704"><use xlink:href="#a"/><text y="1.67" class="c">$</text><text x="2.004" y="1.67" class="c">fluid</text><text x="8.016" y="1.67" class="c">forge</text><text x="14.028" y="1.67" class="c">--blank</text><text x="22.044" y="1.67" class="c">--domain</text><text x="31.062" y="1.67" class="c">finance</text><text x="39.078" y="1.67" class="c">--target-dir</text><text x="52.104" y="1.67" class="c">my-finance-</text></svg><svg x="5796"><use xlink:href="#a"/><text y="1.67" class="c">$</text><text x="2.004" y="1.67" class="c">fluid</text><text x="8.016" y="1.67" class="c">forge</text><text x="14.028" y="1.67" class="c">--blank</text><text x="22.044" y="1.67" class="c">--domain</text><text x="31.062" y="1.67" class="c">finance</text><text x="39.078" y="1.67" class="c">--target-dir</text><text x="52.104" y="1.67" class="c">my-finance-p</text></svg><svg x="5888"><use xlink:href="#a"/><text y="1.67" class="c">$</text><text x="2.004" y="1.67" class="c">fluid</text><text x="8.016" y="1.67" class="c">forge</text><text x="14.028" y="1.67" class="c">--blank</text><text x="22.044" y="1.67" class="c">--domain</text><text x="31.062" y="1.67" class="c">finance</text><text x="39.078" y="1.67" class="c">--target-dir</text><text x="52.104" y="1.67" class="c">my-finance-pr</text></svg><svg x="5980"><use xlink:href="#a"/><text y="1.67" class="c">$</text><text x="2.004" y="1.67" class="c">fluid</text><text x="8.016" y="1.67" class="c">forge</text><text x="14.028" y="1.67" class="c">--blank</text><text x="22.044" y="1.67" class="c">--domain</text><text x="31.062" y="1.67" class="c">finance</text><text x="39.078" y="1.67" class="c">--target-dir</text><text x="52.104" y="1.67" class="c">my-finance-pro</text></svg><svg x="6072"><use xlink:href="#a"/><text y="1.67" class="c">$</text><text x="2.004" y="1.67" class="c">fluid</text><text x="8.016" y="1.67" class="c">forge</text><text x="14.028" y="1.67" class="c">--blank</text><text x="22.044" y="1.67" class="c">--domain</text><text x="31.062" y="1.67" class="c">finance</text><text x="39.078" y="1.67" class="c">--target-dir</text><text x="52.104" y="1.67" class="c">my-finance-prod</text></svg><svg x="6164"><use xlink:href="#a"/><text y="1.67" class="c">$</text><text x="2.004" y="1.67" class="c">fluid</text><text x="8.016" y="1.67" class="c">forge</text><text x="14.028" y="1.67" class="c">--blank</text><text x="22.044" y="1.67" class="c">--domain</text><text x="31.062" y="1.67" class="c">finance</text><text x="39.078" y="1.67" class="c">--target-dir</text><text x="52.104" y="1.67" class="c">my-finance-produ</text></svg><svg x="6256"><use xlink:href="#a"/><text y="1.67" class="c">$</text><text x="2.004" y="1.67" class="c">fluid</text><text x="8.016" y="1.67" class="c">forge</text><text x="14.028" y="1.67" class="c">--blank</text><text x="22.044" y="1.67" class="c">--domain</text><text x="31.062" y="1.67" class="c">finance</text><text x="39.078" y="1.67" class="c">--target-dir</text><text x="52.104" y="1.67" class="c">my-finance-produc</text></svg><svg x="6348"><use xlink:href="#a"/><use xlink:href="#8"/></svg><svg x="6440"><use xlink:href="#a"/><use xlink:href="#8"/></svg><svg x="6532"><use xlink:href="#a"/><use xlink:href="#8"/></svg><svg x="6624"><use xlink:href="#a"/><use xlink:href="#8"/><use xlink:href="#9" y="2.171"/></svg><svg x="6716"><use xlink:href="#a"/><use xlink:href="#8"/><use xlink:href="#9" y="2.171"/></svg><svg x="6808"><use xlink:href="#a"/><use xlink:href="#8"/><use xlink:href="#9" y="2.171"/><use xlink:href="#10" y="4.342"/></svg><svg x="6900"><use xlink:href="#a"/><use xlink:href="#8"/><use xlink:href="#9" y="2.171"/><use xlink:href="#10" y="4.342"/></svg><svg x="6992"><use xlink:href="#a"/><use xlink:href="#8"/><use xlink:href="#9" y="2.171"/><use xlink:href="#10" y="4.342"/><use xlink:href="#11" y="6.513"/></svg><svg x="7084"><use xlink:href="#a"/><use xlink:href="#8"/><use xlink:href="#9" y="2.171"/><use xlink:href="#10" y="4.342"/><use xlink:href="#11" y="6.513"/></svg><svg x="7176"><use xlink:href="#a"/><use xlink:href="#8"/><use xlink:href="#9" y="2.171"/><use xlink:href="#10" y="4.342"/><use xlink:href="#11" y="6.513"/><use xlink:href="#12" y="8.684"/></svg><svg x="7268"><use xlink:href="#a"/><use xlink:href="#8"/><use xlink:href="#9" y="2.171"/><use xlink:href="#10" y="4.342"/><use xlink:href="#11" y="6.513"/><use xlink:href="#12" y="8.684"/></svg><svg x="7360"><use xlink:href="#a"/><use xlink:href="#8"/><use xlink:href="#9" y="2.171"/><use xlink:href="#10" y="4.342"/><use xlink:href="#11" y="6.513"/><use xlink:href="#12" y="8.684"/></svg><svg x="7452"><use xlink:href="#a"/><use xlink:href="#8"/><use xlink:href="#9" y="2.171"/><use xlink:href="#10" y="4.342"/><use xlink:href="#11" y="6.513"/><use xlink:href="#12" y="8.684"/><use xlink:href="#13" y="10.855"/></svg><svg x="7544"><use xlink:href="#a"/><use xlink:href="#8"/><use xlink:href="#9" y="2.171"/><use xlink:href="#10" y="4.342"/><use xlink:href="#11" y="6.513"/><use xlink:href="#12" y="8.684"/><use xlink:href="#13" y="10.855"/></svg><svg x="7636"><use xlink:href="#a"/><use xlink:href="#8"/><use xlink:href="#9" y="2.171"/><use xlink:href="#10" y="4.342"/><use xlink:href="#11" y="6.513"/><use xlink:href="#12" y="8.684"/><use xlink:href="#13" y="10.855"/><use xlink:href="#14" y="13.026"/></svg><svg x="7728"><use xlink:href="#a"/><use xlink:href="#8"/><use xlink:href="#9" y="2.171"/><use xlink:href="#10" y="4.342"/><use xlink:href="#11" y="6.513"/><use xlink:href="#12" y="8.684"/><use xlink:href="#13" y="10.855"/><use xlink:href="#14" y="13.026"/></svg><svg x="7820"><use xlink:href="#a"/><use xlink:href="#8"/><use xlink:href="#9" y="2.171"/><use xlink:href="#10" y="4.342"/><use xlink:href="#11" y="6.513"/><use xlink:href="#12" y="8.684"/><use xlink:href="#13" y="10.855"/><use xlink:href="#14" y="13.026"/><use xlink:href="#15" y="15.197"/></svg><svg x="7912"><use xlink:href="#a"/><use xlink:href="#8"/><use xlink:href="#9" y="2.171"/><use xlink:href="#10" y="4.342"/><use xlink:href="#11" y="6.513"/><use xlink:href="#12" y="8.684"/><use xlink:href="#13" y="10.855"/><use xlink:href="#14" y="13.026"/><use xlink:href="#15" y="15.197"/></svg><svg x="8004"><use xlink:href="#a"/><use xlink:href="#8"/><use xlink:href="#9" y="2.171"/><use xlink:href="#10" y="4.342"/><use xlink:href="#11" y="6.513"/><use xlink:href="#12" y="8.684"/><use xlink:href="#13" y="10.855"/><use xlink:href="#14" y="13.026"/><use xlink:href="#15" y="15.197"/><use xlink:href="#16" y="17.368"/></svg><svg x="8096"><use xlink:href="#a"/><use xlink:href="#8"/><use xlink:href="#9" y="2.171"/><use xlink:href="#10" y="4.342"/><use xlink:href="#11" y="6.513"/><use xlink:href="#12" y="8.684"/><use xlink:href="#13" y="10.855"/><use xlink:href="#14" y="13.026"/><use xlink:href="#15" y="15.197"/><use xlink:href="#16" y="17.368"/></svg><svg x="8188"><use xlink:href="#a"/><use xlink:href="#8"/><use xlink:href="#9" y="2.171"/><use xlink:href="#10" y="4.342"/><use xlink:href="#11" y="6.513"/><use xlink:href="#12" y="8.684"/><use xlink:href="#13" y="10.855"/><use xlink:href="#14" y="13.026"/><use xlink:href="#15" y="15.197"/><use xlink:href="#16" y="17.368"/><use xlink:href="#17" y="19.539"/></svg><svg x="8280"><use xlink:href="#a"/><use xlink:href="#8"/><use xlink:href="#9" y="2.171"/><use xlink:href="#10" y="4.342"/><use xlink:href="#11" y="6.513"/><use xlink:href="#12" y="8.684"/><use xlink:href="#13" y="10.855"/><use xlink:href="#14" y="13.026"/><use xlink:href="#15" y="15.197"/><use xlink:href="#16" y="17.368"/><use xlink:href="#17" y="19.539"/></svg><svg x="8372"><use xlink:href="#a"/><use xlink:href="#8"/><use xlink:href="#9" y="2.171"/><use xlink:href="#10" y="4.342"/><use xlink:href="#11" y="6.513"/><use xlink:href="#12" y="8.684"/><use xlink:href="#13" y="10.855"/><use xlink:href="#14" y="13.026"/><use xlink:href="#15" y="15.197"/><use xlink:href="#16" y="17.368"/><use xlink:href="#17" y="19.539"/></svg><svg x="8464"><use xlink:href="#a"/><use xlink:href="#8"/><use xlink:href="#9" y="2.171"/><use xlink:href="#10" y="4.342"/><use xlink:href="#11" y="6.513"/><use xlink:href="#12" y="8.684"/><use xlink:href="#13" y="10.855"/><use xlink:href="#14" y="13.026"/><use xlink:href="#15" y="15.197"/><use xlink:href="#16" y="17.368"/><use xlink:href="#17" y="19.539"/><use xlink:href="#18" y="21.71"/></svg><svg x="8556"><use xlink:href="#a"/><use xlink:href="#8"/><use xlink:href="#9" y="2.171"/><use xlink:href="#10" y="4.342"/><use xlink:href="#11" y="6.513"/><use xlink:href="#12" y="8.684"/><use xlink:href="#13" y="10.855"/><use xlink:href="#14" y="13.026"/><use xlink:href="#15" y="15.197"/><use xlink:href="#16" y="17.368"/><use xlink:href="#17" y="19.539"/><use xlink:href="#18" y="21.71"/></svg><svg x="8648"><use xlink:href="#a"/><use xlink:href="#8"/><use xlink:href="#9" y="2.171"/><use xlink:href="#10" y="4.342"/><use xlink:href="#11" y="6.513"/><use xlink:href="#12" y="8.684"/><use xlink:href="#13" y="10.855"/><use xlink:href="#14" y="13.026"/><use xlink:href="#15" y="15.197"/><use xlink:href="#16" y="17.368"/><use xlink:href="#17" y="19.539"/><use xlink:href="#18" y="21.71"/><use xlink:href="#19" y="23.881"/></svg><svg x="8740"><use xlink:href="#a"/><use xlink:href="#8"/><use xlink:href="#9" y="2.171"/><use xlink:href="#10" y="4.342"/><use xlink:href="#11" y="6.513"/><use xlink:href="#12" y="8.684"/><use xlink:href="#13" y="10.855"/><use xlink:href="#14" y="13.026"/><use xlink:href="#15" y="15.197"/><use xlink:href="#16" y="17.368"/><use xlink:href="#17" y="19.539"/><use xlink:href="#18" y="21.71"/><use xlink:href="#19" y="23.881"/></svg><svg x="8832"><use xlink:href="#a"/><use xlink:href="#8"/><use xlink:href="#9" y="2.171"/><use xlink:href="#10" y="4.342"/><use xlink:href="#11" y="6.513"/><use xlink:href="#12" y="8.684"/><use xlink:href="#13" y="10.855"/><use xlink:href="#14" y="13.026"/><use xlink:href="#15" y="15.197"/><use xlink:href="#16" y="17.368"/><use xlink:href="#17" y="19.539"/><use xlink:href="#18" y="21.71"/><use xlink:href="#19" y="23.881"/><use xlink:href="#20" y="26.052"/></svg><svg x="8924"><use xlink:href="#a"/><use xlink:href="#8"/><use xlink:href="#9" y="2.171"/><use xlink:href="#10" y="4.342"/><use xlink:href="#11" y="6.513"/><use xlink:href="#12" y="8.684"/><use xlink:href="#13" y="10.855"/><use xlink:href="#14" y="13.026"/><use xlink:href="#15" y="15.197"/><use xlink:href="#16" y="17.368"/><use xlink:href="#17" y="19.539"/><use xlink:href="#18" y="21.71"/><use xlink:href="#19" y="23.881"/><use xlink:href="#20" y="26.052"/></svg><svg x="9016"><use xlink:href="#a"/><use xlink:href="#8"/><use xlink:href="#9" y="2.171"/><use xlink:href="#10" y="4.342"/><use xlink:href="#11" y="6.513"/><use xlink:href="#12" y="8.684"/><use xlink:href="#13" y="10.855"/><use xlink:href="#14" y="13.026"/><use xlink:href="#15" y="15.197"/><use xlink:href="#16" y="17.368"/><use xlink:href="#17" y="19.539"/><use xlink:href="#18" y="21.71"/><use xlink:href="#19" y="23.881"/><use xlink:href="#20" y="26.052"/><use xlink:href="#21" y="28.223"/></svg><svg x="9108"><use xlink:href="#a"/><use xlink:href="#8"/><use xlink:href="#9" y="2.171"/><use xlink:href="#10" y="4.342"/><use xlink:href="#11" y="6.513"/><use xlink:href="#12" y="8.684"/><use xlink:href="#13" y="10.855"/><use xlink:href="#14" y="13.026"/><use xlink:href="#15" y="15.197"/><use xlink:href="#16" y="17.368"/><use xlink:href="#17" y="19.539"/><use xlink:href="#18" y="21.71"/><use xlink:href="#19" y="23.881"/><use xlink:href="#20" y="26.052"/><use xlink:href="#21" y="28.223"/></svg><svg x="9200"><use xlink:href="#a"/><use xlink:href="#8"/><use xlink:href="#9" y="2.171"/><use xlink:href="#10" y="4.342"/><use xlink:href="#11" y="6.513"/><use xlink:href="#12" y="8.684"/><use xlink:href="#13" y="10.855"/><use xlink:href="#14" y="13.026"/><use xlink:href="#15" y="15.197"/><use xlink:href="#16" y="17.368"/><use xlink:href="#17" y="19.539"/><use xlink:href="#18" y="21.71"/><use xlink:href="#19" y="23.881"/><use xlink:href="#20" y="26.052"/><use xlink:href="#21" y="28.223"/><use xlink:href="#22" y="30.394"/></svg><svg x="9292"><use xlink:href="#a"/><use xlink:href="#8"/><use xlink:href="#9" y="2.171"/><use xlink:href="#10" y="4.342"/><use xlink:href="#11" y="6.513"/><use xlink:href="#12" y="8.684"/><use xlink:href="#13" y="10.855"/><use xlink:href="#14" y="13.026"/><use xlink:href="#15" y="15.197"/><use xlink:href="#16" y="17.368"/><use xlink:href="#17" y="19.539"/><use xlink:href="#18" y="21.71"/><use xlink:href="#19" y="23.881"/><use xlink:href="#20" y="26.052"/><use xlink:href="#21" y="28.223"/><use xlink:href="#22" y="30.394"/></svg><svg x="9384"><use xlink:href="#a"/><use xlink:href="#8"/><use xlink:href="#9" y="2.171"/><use xlink:href="#10" y="4.342"/><use xlink:href="#11" y="6.513"/><use xlink:href="#12" y="8.684"/><use xlink:href="#13" y="10.855"/><use xlink:href="#14" y="13.026"/><use xlink:href="#15" y="15.197"/><use xlink:href="#16" y="17.368"/><use xlink:href="#17" y="19.539"/><use xlink:href="#18" y="21.71"/><use xlink:href="#19" y="23.881"/><use xlink:href="#20" y="26.052"/><use xlink:href="#21" y="28.223"/><use xlink:href="#22" y="30.394"/></svg><svg x="9476"><use xlink:href="#a"/><use xlink:href="#8"/><use xlink:href="#9" y="2.171"/><use xlink:href="#10" y="4.342"/><use xlink:href="#11" y="6.513"/><use xlink:href="#12" y="8.684"/><use xlink:href="#13" y="10.855"/><use xlink:href="#14" y="13.026"/><use xlink:href="#15" y="15.197"/><use xlink:href="#16" y="17.368"/><use xlink:href="#17" y="19.539"/><use xlink:href="#18" y="21.71"/><use xlink:href="#19" y="23.881"/><use xlink:href="#20" y="26.052"/><use xlink:href="#21" y="28.223"/><use xlink:href="#22" y="30.394"/><use xlink:href="#23" y="32.565"/></svg><svg x="9568"><use xlink:href="#a"/><use xlink:href="#8"/><use xlink:href="#9" y="2.171"/><use xlink:href="#10" y="4.342"/><use xlink:href="#11" y="6.513"/><use xlink:href="#12" y="8.684"/><use xlink:href="#13" y="10.855"/><use xlink:href="#14" y="13.026"/><use xlink:href="#15" y="15.197"/><use xlink:href="#16" y="17.368"/><use xlink:href="#17" y="19.539"/><use xlink:href="#18" y="21.71"/><use xlink:href="#19" y="23.881"/><use xlink:href="#20" y="26.052"/><use xlink:href="#21" y="28.223"/><use xlink:href="#22" y="30.394"/><use xlink:href="#23" y="32.565"/></svg><svg x="9660"><use xlink:href="#a"/><use xlink:href="#8"/><use xlink:href="#9" y="2.171"/><use xlink:href="#10" y="4.342"/><use xlink:href="#11" y="6.513"/><use xlink:href="#12" y="8.684"/><use xlink:href="#13" y="10.855"/><use xlink:href="#14" y="13.026"/><use xlink:href="#15" y="15.197"/><use xlink:href="#16" y="17.368"/><use xlink:href="#17" y="19.539"/><use xlink:href="#18" y="21.71"/><use xlink:href="#19" y="23.881"/><use xlink:href="#20" y="26.052"/><use xlink:href="#21" y="28.223"/><use xlink:href="#22" y="30.394"/><use xlink:href="#23" y="32.565"/><use xlink:href="#24" y="34.736"/></svg><svg x="9752"><use xlink:href="#a"/><use xlink:href="#8"/><use xlink:href="#9" y="2.171"/><use xlink:href="#10" y="4.342"/><use xlink:href="#11" y="6.513"/><use xlink:href="#12" y="8.684"/><use xlink:href="#13" y="10.855"/><use xlink:href="#14" y="13.026"/><use xlink:href="#15" y="15.197"/><use xlink:href="#16" y="17.368"/><use xlink:href="#17" y="19.539"/><use xlink:href="#18" y="21.71"/><use xlink:href="#19" y="23.881"/><use xlink:href="#20" y="26.052"/><use xlink:href="#21" y="28.223"/><use xlink:href="#22" y="30.394"/><use xlink:href="#23" y="32.565"/><use xlink:href="#24" y="34.736"/></svg><svg x="9844"><use xlink:href="#a"/><use xlink:href="#8"/><use xlink:href="#9" y="2.171"/><use xlink:href="#10" y="4.342"/><use xlink:href="#11" y="6.513"/><use xlink:href="#12" y="8.684"/><use xlink:href="#13" y="10.855"/><use xlink:href="#14" y="13.026"/><use xlink:href="#15" y="15.197"/><use xlink:href="#16" y="17.368"/><use xlink:href="#17" y="19.539"/><use xlink:href="#18" y="21.71"/><use xlink:href="#19" y="23.881"/><use xlink:href="#20" y="26.052"/><use xlink:href="#21" y="28.223"/><use xlink:href="#22" y="30.394"/><use xlink:href="#23" y="32.565"/><use xlink:href="#24" y="34.736"/></svg><svg x="9936"><use xlink:href="#a"/><use xlink:href="#8"/><use xlink:href="#9" y="2.171"/><use xlink:href="#10" y="4.342"/><use xlink:href="#11" y="6.513"/><use xlink:href="#12" y="8.684"/><use xlink:href="#13" y="10.855"/><use xlink:href="#14" y="13.026"/><use xlink:href="#15" y="15.197"/><use xlink:href="#16" y="17.368"/><use xlink:href="#17" y="19.539"/><use xlink:href="#18" y="21.71"/><use xlink:href="#19" y="23.881"/><use xlink:href="#20" y="26.052"/><use xlink:href="#21" y="28.223"/><use xlink:href="#22" y="30.394"/><use xlink:href="#23" y="32.565"/><use xlink:href="#24" y="34.736"/><use xlink:href="#1" y="36.907"/></svg><svg x="10028"><use xlink:href="#a"/><use xlink:href="#8"/><use xlink:href="#9" y="2.171"/><use xlink:href="#10" y="4.342"/><use xlink:href="#11" y="6.513"/><use xlink:href="#12" y="8.684"/><use xlink:href="#13" y="10.855"/><use xlink:href="#14" y="13.026"/><use xlink:href="#15" y="15.197"/><use xlink:href="#16" y="17.368"/><use xlink:href="#17" y="19.539"/><use xlink:href="#18" y="21.71"/><use xlink:href="#19" y="23.881"/><use xlink:href="#20" y="26.052"/><use xlink:href="#21" y="28.223"/><use xlink:href="#22" y="30.394"/><use xlink:href="#23" y="32.565"/><use xlink:href="#24" y="34.736"/><use xlink:href="#1" y="36.907"/></svg></svg></g></g></svg></svg>